<svg width="103" height="22" viewBox="0 0 103 22" fill="none" xmlns="http://www.w3.org/2000/svg">
<path fill-rule="evenodd" clip-rule="evenodd" d="M13.338 3.07348H15.6167V0.128906H13.338H10.358V3.07348V17.8714V20.8159H13.338H15.6167V17.8714H13.338V3.07348Z" fill="#42DFFF"/>
<path fill-rule="evenodd" clip-rule="evenodd" d="M8.98767 5.22678H4.04767C1.8214 5.22678 0 7.02655 0 9.22638V16.8161C0 19.0159 1.8214 20.8157 4.04767 20.8157H8.98767V17.8711H4.717C3.92811 17.8711 3.28275 17.2334 3.28275 16.4539V9.58857C3.28275 8.80912 3.92818 8.17135 4.717 8.17135H8.98767V5.22678Z" fill="white"/>
<path fill-rule="evenodd" clip-rule="evenodd" d="M20.3011 14.8804H26.0937H30.7708V9.73127C30.7708 7.29773 28.7558 5.30664 26.2929 5.30664H21.6312C19.1683 5.30664 17.1533 7.29773 17.1533 9.73127V14.4396V14.8804V16.6357C17.1533 18.9527 19.0721 20.8483 21.4166 20.8483H26.0937V17.8722H21.815C20.9823 17.8722 20.3011 17.1991 20.3011 16.3763V14.8804ZM20.3753 11.8589H27.5488V9.561C27.5488 8.88287 26.9873 8.32809 26.3011 8.32809H21.623C20.9368 8.32809 20.3753 8.88295 20.3753 9.561V11.8589Z" fill="white"/>
<path fill-rule="evenodd" clip-rule="evenodd" d="M32.0607 5.37015H35.5028L39.1975 17.8244H39.5551L43.2497 5.37015H46.6919L42.1002 20.8482H40.0945H38.658H36.6523L32.0607 5.37015Z" fill="white"/>
<path fill-rule="evenodd" clip-rule="evenodd" d="M59.9273 20.8378H63.3056L63.7707 6.56284H63.7602C63.8474 5.86147 63.3871 5.32486 62.6424 5.32486H55.6052L54.6877 8.32805H60.3349L59.9273 20.8378Z" fill="white"/>
<path fill-rule="evenodd" clip-rule="evenodd" d="M87.2449 5.25946H92.1849C94.4111 5.25946 96.2325 7.05924 96.2325 9.25907V16.8487C96.2325 19.0485 94.4111 20.8483 92.1849 20.8483H87.2449V17.9037H91.5156C92.3044 17.9037 92.9498 17.2661 92.9498 16.4866V9.62118C92.9498 8.84174 92.3044 8.20404 91.5156 8.20404H87.2449V5.25946Z" fill="white"/>
<path fill-rule="evenodd" clip-rule="evenodd" d="M75.8447 14.3536V15.8208V16.4716C75.8447 17.2899 75.1671 17.9596 74.3388 17.9596H70.1643C69.336 17.9596 68.6611 17.4076 68.6624 16.5893L68.6636 15.8208H68.6631V11.5253V5.32486H65.4331V8.98046V11.5253V15.337V15.8208V16.9761C65.4331 19.1057 67.1964 20.8482 69.3517 20.8482H75.1554C77.3106 20.8482 79.0739 19.1057 79.0739 16.9761V12.7571V11.5253V11.465V9.02082V5.32486H75.8447H75.844V11.5253H75.8447V14.3536Z" fill="white"/>
<path fill-rule="evenodd" clip-rule="evenodd" d="M27.1534 20.8483H30.1654V17.8722H27.1534V20.8483Z" fill="white"/>
<path fill-rule="evenodd" clip-rule="evenodd" d="M45.7968 20.8482H49.1751L55.5171 0H52.1388L45.7968 20.8482Z" fill="#42DFFF"/>
<path fill-rule="evenodd" clip-rule="evenodd" d="M82.8947 3.10571H80.616V0.161133H82.8947H85.8746V3.10571V17.9036V20.8482H82.8947H80.616V17.9036H82.8947V3.10571Z" fill="#42DFFF"/>
<path d="M103 10.7176C103 10.8619 102.947 10.9902 102.842 11.0944C102.736 11.1985 102.611 11.2507 102.464 11.2507H99.8118C99.6659 11.2507 99.54 11.1985 99.4345 11.0944C99.3292 10.9902 99.2764 10.8619 99.2764 10.7176V8.0803C99.2764 7.92007 99.3292 7.78382 99.4345 7.67956C99.54 7.57538 99.6659 7.52325 99.8118 7.52325H102.464C102.611 7.52325 102.736 7.57538 102.842 7.67956C102.947 7.78382 103 7.92007 103 8.0803V10.7176ZM102.513 15.4591C102.821 15.4591 102.976 15.5953 102.976 15.8679V17.1665C102.976 17.439 102.972 17.7035 102.963 17.9601C102.955 18.2166 102.935 18.4811 102.903 18.7536C102.87 18.9781 102.817 19.1865 102.744 19.3789C102.671 19.5713 102.57 19.7637 102.44 19.9561C102.327 20.1324 102.197 20.3368 102.051 20.5692C101.905 20.8017 101.755 21.0262 101.601 21.2426C101.446 21.4591 101.28 21.6394 101.102 21.7836C100.923 21.9279 100.745 22 100.566 22H99.7145C99.3899 22 99.2278 21.9601 99.2278 21.8799C99.2278 21.8318 99.2764 21.7195 99.3738 21.5432C99.5522 21.2066 99.7388 20.8578 99.9335 20.4971C100.128 20.1364 100.282 19.7957 100.396 19.4751C100.428 19.4109 100.445 19.3628 100.445 19.3307C100.445 19.2346 100.364 19.1865 100.201 19.1865H99.6171C99.3899 19.1865 99.2764 19.0583 99.2764 18.8018V15.8438C99.2764 15.5873 99.4062 15.4591 99.6659 15.4591H102.513Z" fill="#42DFFF"/>
</svg>
