<svg width="98" height="36" viewBox="0 0 98 36" fill="none" xmlns="http://www.w3.org/2000/svg">
<g clip-path="url(#clip0_34_110)">
<rect y="0.5" width="35.2188" height="35" fill="#7928FE"/>
<rect y="9.63049" width="26.0312" height="25.8696" fill="#B487FF"/>
<rect y="18.7609" width="16.8438" height="16.7391" fill="#EBDFFF"/>
</g>
<path d="M50.7865 11.988C53.1441 11.5022 55.2101 11.2593 56.9844 11.2593H58.625C60.2778 11.2593 61.6024 11.7573 62.599 12.7532C63.5955 13.7491 64.0938 15.0729 64.0938 16.7247V30.9347H57.7135V17.4534C57.7135 17.0891 57.592 16.7854 57.349 16.5425C57.1059 16.2996 56.8021 16.1782 56.4375 16.1782H55.1615C54.2378 16.1782 53.3872 16.2267 52.6094 16.3239C51.8559 16.4211 51.2483 16.4939 50.7865 16.5425V30.9347H44.4062V5.42955H50.7865V11.988Z" fill="#0F1014"/>
<path d="M80.3134 17.4534C80.3134 17.0891 80.1919 16.7854 79.9488 16.5425C79.7058 16.2996 79.402 16.1782 79.0374 16.1782H78.1259C77.1051 16.1782 76.2179 16.2267 75.4645 16.3239C74.7353 16.4211 74.1641 16.4939 73.7509 16.5425V26.0159H78.8551C79.8273 26.0159 80.3134 25.5301 80.3134 24.5584V17.4534ZM73.7509 11.988C76.1086 11.5022 78.1745 11.2593 79.9488 11.2593H81.2249C82.8777 11.2593 84.2023 11.7573 85.1988 12.7532C86.1954 13.7491 86.6936 15.0729 86.6936 16.7247V25.105C86.6936 26.9268 86.1711 28.3599 85.1259 29.4044C84.1051 30.4246 82.6832 30.9347 80.8603 30.9347H67.3707V5.42955H73.7509V11.988Z" fill="#0F1014"/>
<path d="M98 12.3524V30.9347H91.6198V17.2712H88.8854V12.3524H98ZM91.6198 5.06519H98V10.1662H91.6198V5.06519Z" fill="#0F1014"/>
<defs>
<clipPath id="clip0_34_110">
<rect width="35.2188" height="35" fill="white" transform="translate(0 0.5)"/>
</clipPath>
</defs>
</svg>
