<svg width="271" height="93" viewBox="0 0 271 93" fill="none" xmlns="http://www.w3.org/2000/svg">
<g clip-path="url(#clip0_61_267)">
<path fill-rule="evenodd" clip-rule="evenodd" d="M8.00936 45.991L13.1347 40.875L18.26 45.991L13.1347 51.107L8.00936 45.991ZM3.26643 46.4841L46.5848 3.24985L89.9032 46.5212L46.5848 89.7607L3.26643 46.5212V46.4841ZM46.5848 1.50034L1.54028 46.5212L46.6114 91.5102L91.6506 46.5212L46.5848 1.53744V1.50034ZM56.8726 30.0386L51.742 35.1546L46.6167 30.0386L51.742 24.9226L56.8726 30.0386ZM62.5291 24.3925L57.4038 29.5085L52.2784 24.3925L57.4038 19.2765L62.5291 24.3925ZM56.8726 18.7463L51.742 23.8623L46.6167 18.7463L51.742 13.6303L56.8726 18.7463ZM51.2109 13.1214L46.0855 18.2374L40.9602 13.1214L46.0855 8.00535L51.2109 13.1214ZM45.5544 18.7728L40.4291 23.8888L35.3037 18.7728L40.4291 13.6568L45.5544 18.7728ZM39.898 24.419L34.7726 29.535L29.642 24.419L34.7726 19.303L39.898 24.419ZM45.5544 30.0651L40.4291 35.1811L35.3037 30.0651L40.4291 24.9491L45.5544 30.0651ZM51.2109 35.7166L46.0855 40.8326L40.9602 35.7166L46.0855 30.5953L51.2109 35.7166ZM56.8726 41.3628L51.742 46.4788L46.6167 41.3628L51.742 36.2468L56.8726 41.3628ZM62.5291 47.0089L57.4038 52.125L52.2784 47.0089L57.4038 41.8929L62.5291 47.0089ZM68.1855 41.3628L63.0602 46.4788L57.9349 41.3628L63.0602 36.2468L68.1855 41.3628ZM73.842 35.7166L68.7167 40.8326L63.5913 35.7166L68.7167 30.5953L73.842 35.7166ZM79.5038 41.3628L74.3784 46.4788L69.2531 41.3628L74.3784 36.2468L79.5038 41.3628ZM73.842 58.3278L68.7167 63.4438L63.5913 58.3278L68.7167 53.2118L73.842 58.3278ZM79.5038 52.6763L74.3784 57.7923L69.2531 52.6763L74.3784 47.5603L79.5038 52.6763ZM85.1602 47.0301L80.0349 52.1461L74.9096 47.0301L80.0349 41.9141L85.1602 47.0301ZM36.2969 62.9825L41.4223 57.8665L46.5476 62.9825L41.4223 68.0986L36.2969 62.956V62.9825ZM30.6405 68.6287L35.7658 63.5127L40.8912 68.6287L35.7658 73.7447L30.6405 68.6287ZM36.2969 74.2749L41.4223 69.1589L46.5476 74.2749L41.4223 79.3909L36.2969 74.2749ZM41.9534 79.921L47.0787 74.7997L52.2094 79.921L47.0787 85.037L41.9534 79.921ZM47.6152 74.2696L52.7405 69.1536L57.8658 74.2696L52.7405 79.3856L47.6152 74.2696ZM53.2716 68.6234L58.397 63.5074L63.5223 68.6234L58.397 73.7394L53.2716 68.6234ZM47.6152 62.956L52.7405 57.84L57.8658 62.956L52.7405 68.072L47.6152 62.956ZM41.9534 57.3046L47.0787 52.1886L52.2094 57.3046L47.0787 62.4259L41.9534 57.3099V57.3046ZM36.2969 51.6584L41.4223 46.5424L46.5476 51.6584L41.4223 56.7744L36.2969 51.6584ZM30.6405 45.991L35.7658 40.875L40.8912 45.991L35.7658 51.107L30.6405 45.991ZM24.984 51.6372L30.1094 46.5212L35.2347 51.6372L30.1094 56.7532L24.984 51.6372ZM19.3223 57.2993L24.4476 52.1833L29.5729 57.2993L24.4476 62.4259L19.3223 57.3099V57.2993ZM13.6658 51.6531L18.7911 46.5212L23.9165 51.6372L18.7911 56.7532L13.6658 51.6372V51.6531ZM19.3223 34.6881L24.4476 29.5721L29.5729 34.6881L24.4476 39.8041L19.3223 34.6881ZM13.6658 40.3555L18.7911 35.2395L23.9165 40.3555L18.7911 45.4609L13.6658 40.3396V40.3555Z" fill="#3E414E"/>
<path d="M105.869 30.8657C106.565 30.8735 107.256 30.7361 107.896 30.4622C108.536 30.1883 109.112 29.784 109.586 29.2752C110.569 28.2493 111.117 26.885 111.117 25.466C111.117 24.0471 110.569 22.6828 109.586 21.6569C109.098 21.1617 108.515 20.7685 107.873 20.5001C107.23 20.2317 106.541 20.0935 105.845 20.0935C105.148 20.0935 104.459 20.2317 103.817 20.5001C103.174 20.7685 102.592 21.1617 102.103 21.6569C101.124 22.6846 100.579 24.0482 100.579 25.466C100.579 26.8838 101.124 28.2475 102.103 29.2752C102.583 29.7871 103.165 30.1931 103.812 30.467C104.459 30.7409 105.156 30.8767 105.858 30.8657H105.869ZM111.376 30.9929C110.1 32.2755 108.417 33.0762 106.615 33.2586C104.813 33.441 103.004 32.9937 101.496 31.993C99.9873 30.9923 98.8735 29.5002 98.3442 27.7713C97.8149 26.0424 97.903 24.1837 98.5934 22.5124C99.2838 20.8411 100.534 19.4606 102.13 18.6065C103.726 17.7524 105.57 17.4776 107.347 17.8289C109.123 18.1803 110.723 19.136 111.872 20.5331C113.021 21.9302 113.65 23.6821 113.65 25.4899C113.667 26.5135 113.475 27.53 113.084 28.4764C112.693 29.4229 112.112 30.2794 111.376 30.9929ZM116.103 21.6038L118.392 17.967H119.832L118.35 21.0737C118.663 21.2155 118.927 21.446 119.109 21.7364C119.307 22.035 119.411 22.3858 119.407 22.7437C119.41 22.9815 119.365 23.2176 119.274 23.4373C119.182 23.6571 119.047 23.8558 118.876 24.0214C118.71 24.1945 118.509 24.3311 118.287 24.4224C118.064 24.5137 117.825 24.5577 117.585 24.5515C117.102 24.5515 116.639 24.3599 116.297 24.0189C115.955 23.6779 115.763 23.2154 115.763 22.7331C115.762 22.3264 115.88 21.9282 116.103 21.5879V21.6038ZM121.797 32.9916V31.3216L129.472 20.3368H121.988V17.967H132.844V19.637L125.127 30.6165H133.014V32.9863L121.797 32.9916ZM136.137 32.9916V17.9776H141.326C141.918 17.9554 142.509 18.0504 143.064 18.2569C143.619 18.4634 144.128 18.7775 144.561 19.181C144.968 19.5548 145.29 20.0102 145.508 20.5173C145.726 21.0244 145.834 21.5717 145.825 22.1234C145.849 22.6848 145.734 23.2433 145.489 23.7494C145.245 24.2554 144.878 24.6931 144.423 25.0234C145.161 25.2761 145.796 25.7623 146.232 26.4081C146.668 27.0539 146.882 27.8242 146.839 28.6019C146.853 29.1924 146.737 29.7788 146.502 30.3206C146.266 30.8624 145.916 31.3468 145.474 31.7404C144.52 32.5978 143.268 33.0504 141.985 33.0022L136.137 32.9916ZM138.618 30.7278H141.921C142.59 30.7699 143.251 30.5578 143.77 30.1341C143.977 29.9299 144.141 29.6868 144.253 29.4188C144.365 29.1508 144.423 28.8632 144.423 28.5727C144.423 28.2823 144.365 27.9947 144.253 27.7267C144.141 27.4587 143.977 27.2156 143.77 27.0114C143.252 26.5839 142.592 26.368 141.921 26.4071H138.618V30.7278ZM138.618 24.2917H141.204C141.494 24.3066 141.784 24.2641 142.058 24.1668C142.331 24.0694 142.582 23.9191 142.798 23.7245C143.179 23.3377 143.392 22.817 143.392 22.2745C143.392 21.732 143.179 21.2113 142.798 20.8245C142.587 20.6213 142.337 20.4637 142.063 20.3615C141.789 20.2593 141.496 20.2148 141.204 20.2307H138.618V24.2917ZM149.994 32.9916V17.9776H159.023V20.3474H152.464V24.1963H157.775V26.5661H152.464V30.6165H159.034V32.9863L149.994 32.9916ZM172.163 32.9916L164.85 25.967V33.0022H162.391V17.9776H164.85V24.4508L170.894 17.9776H174.028L167.33 25.1718L175.515 33.0022L172.163 32.9916ZM177.331 32.9916V17.9776H179.812V33.0022L177.331 32.9916ZM188.485 33.2461C187.056 33.3098 185.656 32.8284 184.57 31.8995C184.097 31.5003 183.711 31.008 183.437 30.4535C183.163 29.8989 183.006 29.2938 182.977 28.6761H185.457C185.488 29.0118 185.595 29.3362 185.769 29.6253C185.942 29.9144 186.179 30.1607 186.461 30.3461C187.048 30.7401 187.74 30.9471 188.448 30.9399C189.093 30.9626 189.728 30.7766 190.259 30.4097C190.484 30.2559 190.667 30.0482 190.791 29.8056C190.916 29.563 190.977 29.2931 190.97 29.0207C190.97 28.0081 190.275 27.2765 188.894 26.8206L187.045 26.2109C184.588 25.4298 183.359 23.9825 183.359 21.8689C183.334 21.2947 183.439 20.7222 183.668 20.1948C183.898 19.6675 184.244 19.1993 184.682 18.8258C185.664 18.0447 186.896 17.6454 188.15 17.7019C188.795 17.6696 189.44 17.7659 190.048 17.9853C190.655 18.2046 191.212 18.5427 191.687 18.9796C192.533 19.7697 193.055 20.8443 193.153 21.9962H190.673C190.559 21.3948 190.217 20.8608 189.717 20.5064C189.251 20.1789 188.694 20.0047 188.124 20.0081C187.554 19.9876 186.994 20.1554 186.53 20.4852C186.32 20.6263 186.147 20.8163 186.027 21.0389C185.907 21.2615 185.842 21.51 185.84 21.7629C185.829 22.0019 185.867 22.2407 185.951 22.4648C186.035 22.6889 186.163 22.8938 186.328 23.0671C186.77 23.4638 187.3 23.7491 187.874 23.8994L189.738 24.4932C192.217 25.299 193.456 26.787 193.456 28.9571C193.474 29.5455 193.358 30.1302 193.117 30.6675C192.876 31.2047 192.516 31.6803 192.065 32.0585C191.05 32.8895 189.764 33.3163 188.453 33.2567L188.485 33.2461ZM199.373 32.9916V20.3474H195.007V17.9776H206.245V20.3474H201.853V33.0022L199.373 32.9916ZM215.078 30.871C215.774 30.8782 216.465 30.7404 217.105 30.4666C217.745 30.1928 218.321 29.7888 218.796 29.2805C219.774 28.2528 220.32 26.8891 220.32 25.4713C220.32 24.0535 219.774 22.6899 218.796 21.6622C218.307 21.167 217.725 20.7738 217.082 20.5054C216.44 20.237 215.751 20.0988 215.054 20.0988C214.358 20.0988 213.668 20.237 213.026 20.5054C212.384 20.7738 211.801 21.167 211.312 21.6622C210.33 22.688 209.782 24.0524 209.782 25.4713C209.782 26.8903 210.33 28.2546 211.312 29.2805C211.791 29.7923 212.373 30.1982 213.019 30.4722C213.664 30.7461 214.36 30.8819 215.062 30.871H215.078ZM220.591 30.9982C219.315 32.2848 217.63 33.0893 215.826 33.2744C214.021 33.4595 212.208 33.0137 210.696 32.0131C209.184 31.0126 208.067 29.5193 207.535 27.7881C207.003 26.057 207.09 24.1952 207.78 22.5206C208.47 20.846 209.721 19.4623 211.319 18.6058C212.918 17.7493 214.764 17.473 216.544 17.8241C218.323 18.1751 219.926 19.1318 221.078 20.5308C222.229 21.9298 222.859 23.6844 222.859 25.4952C222.876 26.5183 222.684 27.5341 222.294 28.4804C221.904 29.4267 221.325 30.2835 220.591 30.9982ZM239.18 33.0075H237.019L228.521 22.1923V33.0075H226.04V17.9776H228.202L236.658 28.7716V17.9776H239.159V33.0022L239.18 33.0075ZM103.516 53.8532C102.087 53.917 100.687 53.4355 99.6014 52.5067C99.1272 52.1083 98.7408 51.6163 98.4666 51.0615C98.1924 50.5067 98.0362 49.9013 98.008 49.2833H100.488C100.519 49.619 100.626 49.9434 100.8 50.2324C100.973 50.5215 101.21 50.7679 101.492 50.9533C102.079 51.3472 102.771 51.5543 103.479 51.5471C104.124 51.5698 104.759 51.3838 105.29 51.0169C105.515 50.8627 105.698 50.6549 105.822 50.4124C105.946 50.1699 106.008 49.9002 106.001 49.6279C106.001 48.6153 105.306 47.8784 103.919 47.4278L102.076 46.8181C99.6191 46.0405 98.3904 44.5932 98.3904 42.4761C98.3653 41.9012 98.4713 41.3281 98.7004 40.8001C98.9295 40.272 99.2757 39.8028 99.7129 39.4277C100.697 38.6506 101.928 38.2535 103.181 38.3091C103.826 38.2758 104.472 38.3717 105.079 38.5912C105.687 38.8106 106.244 39.1491 106.718 39.5868C107.564 40.3768 108.086 41.4515 108.184 42.6033H105.704C105.588 42.0028 105.246 41.4695 104.748 41.1136C104.282 40.7861 103.725 40.6119 103.155 40.6152C102.586 40.5968 102.026 40.7643 101.561 41.0924C101.36 41.2352 101.196 41.4236 101.083 41.642C100.969 41.8605 100.909 42.1027 100.908 42.3489C100.897 42.5879 100.935 42.8266 101.019 43.0507C101.103 43.2749 101.231 43.4797 101.397 43.653C101.838 44.0497 102.368 44.3351 102.942 44.4854L104.806 45.0792C107.285 45.885 108.524 47.373 108.524 49.5431C108.541 50.1313 108.425 50.7157 108.184 51.2527C107.943 51.7897 107.584 52.2655 107.133 52.6445C106.118 53.4755 104.832 53.9023 103.521 53.8426L103.516 53.8532ZM109.656 53.5988L116.231 38.5688H118.387L124.957 53.5935H122.371L120.655 49.6544H113.91L112.216 53.5935L109.656 53.5988ZM117.288 41.9353L114.871 47.4755H119.704L117.288 41.9353ZM130.491 53.5988L124.171 38.5688H126.885L131.57 49.8029L136.238 38.5688H138.968L132.653 53.5935L130.491 53.5988ZM141.427 53.5988V38.5688H146.048C147.08 38.5409 148.108 38.7172 149.071 39.0876C150.035 39.4579 150.915 40.0149 151.662 40.7266C152.38 41.4223 152.95 42.2547 153.34 43.1744C153.729 44.0942 153.93 45.0826 153.93 46.0812C153.93 47.0797 153.729 48.0681 153.34 48.9879C152.95 49.9076 152.38 50.74 151.662 51.4357C150.915 52.1474 150.035 52.7044 149.071 53.0748C148.108 53.4451 147.08 53.6214 146.048 53.5935L141.427 53.5988ZM143.908 51.2926H146.032C146.744 51.321 147.454 51.2039 148.119 50.9487C148.784 50.6934 149.389 50.3053 149.899 49.8082C150.856 48.8038 151.39 47.4703 151.39 46.0838C151.39 44.6973 150.856 43.3638 149.899 42.3595C149.388 41.864 148.782 41.4774 148.118 41.2231C147.453 40.9688 146.743 40.8522 146.032 40.8803H143.908V51.2926ZM163.973 51.4622C164.67 51.4694 165.36 51.3317 166 51.0579C166.64 50.784 167.216 50.3801 167.691 49.8718C168.67 48.844 169.215 47.4804 169.215 46.0626C169.215 44.6448 168.67 43.2812 167.691 42.2534C167.203 41.7583 166.62 41.3651 165.978 41.0967C165.335 40.8283 164.646 40.6901 163.95 40.6901C163.253 40.6901 162.564 40.8283 161.921 41.0967C161.279 41.3651 160.697 41.7583 160.208 42.2534C159.229 43.2812 158.684 44.6448 158.684 46.0626C158.684 47.4804 159.229 48.844 160.208 49.8718C160.687 50.383 161.269 50.7886 161.914 51.0625C162.56 51.3364 163.256 51.4726 163.957 51.4622H163.973ZM169.486 51.5895C168.21 52.876 166.526 53.6805 164.721 53.8656C162.917 54.0507 161.104 53.6049 159.592 52.6044C158.08 51.6039 156.962 50.1106 156.431 48.3794C155.899 46.6482 155.985 44.7864 156.675 43.1118C157.365 41.4372 158.616 40.0536 160.215 39.1971C161.813 38.3406 163.66 38.0643 165.439 38.4154C167.219 38.7664 168.821 39.7231 169.973 41.1221C171.125 42.5211 171.754 44.2757 171.754 46.0865C171.772 47.1096 171.58 48.1257 171.19 49.072C170.8 50.0184 170.221 50.8751 169.486 51.5895ZM174.421 48.8168V46.5212H180.125V48.8062L174.421 48.8168ZM188.23 53.8532C186.801 53.917 185.401 53.4355 184.315 52.5067C183.841 52.1083 183.455 51.6163 183.181 51.0615C182.906 50.5067 182.75 49.9013 182.722 49.2833H185.202C185.234 49.619 185.34 49.9434 185.514 50.2324C185.687 50.5215 185.924 50.7679 186.206 50.9533C186.793 51.3472 187.486 51.5543 188.193 51.5471C188.838 51.5698 189.473 51.3838 190.004 51.0169C190.229 50.8627 190.412 50.6549 190.536 50.4124C190.66 50.1699 190.722 49.9002 190.715 49.6279C190.715 48.6153 190.02 47.8784 188.633 47.4278L186.79 46.8181C184.333 46.0405 183.104 44.5932 183.104 42.4761C183.079 41.9012 183.185 41.3281 183.414 40.8001C183.644 40.272 183.99 39.8028 184.427 39.4277C185.411 38.6506 186.642 38.2535 187.895 38.3091C188.54 38.2758 189.186 38.3717 189.793 38.5912C190.401 38.8106 190.958 39.1491 191.432 39.5868C192.278 40.3768 192.8 41.4515 192.898 42.6033H190.418C190.302 42.0028 189.96 41.4695 189.462 41.1136C188.996 40.7861 188.439 40.6119 187.869 40.6152C187.3 40.5968 186.74 40.7643 186.275 41.0924C186.074 41.2352 185.91 41.4236 185.797 41.642C185.683 41.8605 185.623 42.1027 185.622 42.3489C185.611 42.5879 185.649 42.8266 185.733 43.0507C185.817 43.2749 185.945 43.4797 186.111 43.653C186.552 44.0497 187.082 44.3351 187.656 44.4854L189.52 45.0792C191.999 45.885 193.238 47.373 193.238 49.5431C193.255 50.1313 193.139 50.7157 192.898 51.2527C192.657 51.7897 192.298 52.2655 191.847 52.6445C190.832 53.4755 189.546 53.9023 188.235 53.8426L188.23 53.8532ZM194.37 53.5988L200.934 38.5688H203.096L209.666 53.5935H207.085L205.369 49.6544H198.624L196.924 53.5935L194.37 53.5988ZM202.002 41.9353L199.585 47.4755H204.429L202.012 41.9353H202.002ZM225.212 53.5988H223.018L214.52 42.7836V53.5988H212.077V38.5688H214.239L222.7 49.3628V38.5688H225.201V53.5935L225.212 53.5988ZM236.206 51.4782C236.902 51.4853 237.593 51.3476 238.233 51.0738C238.873 50.7999 239.449 50.396 239.924 49.8877C240.902 48.86 241.448 47.4963 241.448 46.0785C241.448 44.6607 240.902 43.2971 239.924 42.2693C239.435 41.7742 238.853 41.381 238.21 41.1126C237.568 40.8442 236.879 40.706 236.182 40.706C235.486 40.706 234.796 40.8442 234.154 41.1126C233.512 41.381 232.929 41.7742 232.44 42.2693C231.462 43.2971 230.916 44.6607 230.916 46.0785C230.916 47.4963 231.462 48.86 232.44 49.8877C232.92 50.3989 233.501 50.8045 234.147 51.0784C234.793 51.3523 235.489 51.4885 236.19 51.4782H236.206ZM241.719 51.6054C240.443 52.8919 238.758 53.6964 236.954 53.8815C235.149 54.0666 233.336 53.6209 231.824 52.6203C230.312 51.6198 229.195 50.1265 228.663 48.3953C228.131 46.6641 228.218 44.8023 228.908 43.1277C229.598 41.4531 230.849 40.0695 232.447 39.213C234.046 38.3565 235.892 38.0802 237.672 38.4313C239.451 38.7823 241.054 39.739 242.206 41.138C243.357 42.537 243.987 44.2916 243.987 46.1024C244.004 47.1254 243.812 48.1413 243.422 49.0876C243.032 50.0339 242.453 50.8906 241.719 51.6054ZM244.906 53.6147L251.455 38.5688H253.616L260.197 53.5988H257.61L255.89 49.6597H249.144L247.45 53.5988L244.906 53.6147ZM252.538 41.9512L250.106 47.4596H254.939L252.522 41.9194L252.538 41.9512ZM264.148 53.6147V40.944H259.783V38.5688H271.016V40.9386H266.629V53.5935L264.148 53.6147ZM107.584 60.5756C108.047 61.0344 108.414 61.5799 108.665 62.1809C108.915 62.7819 109.044 63.4264 109.044 64.0773C109.044 64.7282 108.915 65.3728 108.665 65.9737C108.414 66.5747 108.047 67.1203 107.584 67.579C107.083 68.0511 106.493 68.4189 105.849 68.661C105.204 68.9031 104.517 69.0147 103.829 68.9892H101.519V74.1954H99.0437V59.1707H103.824C104.512 59.1442 105.198 59.2548 105.843 59.496C106.488 59.7373 107.078 60.1043 107.579 60.5756H107.584ZM105.858 65.9302C106.345 65.4347 106.617 64.7685 106.617 64.0747C106.617 63.3808 106.345 62.7146 105.858 62.2191C105.583 61.9678 105.26 61.7737 104.909 61.6481C104.558 61.5225 104.186 61.4679 103.813 61.4875H101.519V66.6671H103.813C104.186 66.6867 104.558 66.6322 104.909 66.5065C105.26 66.3809 105.583 66.1868 105.858 65.9355V65.9302ZM109.401 74.1954L115.976 59.1707H118.138L124.708 74.1954H122.105L120.389 70.2563H113.665L111.966 74.1954H109.401ZM117.033 62.5319L114.616 68.0773H119.449L117.033 62.5319ZM127.124 74.1954V59.1707H129.604V71.8256H136.509V74.1954H127.124ZM137.486 74.1954L144.056 59.1707H146.223L152.793 74.1954H150.201L148.486 70.2563H141.757L140.062 74.1954H137.486ZM145.119 62.5319L142.702 68.0773H147.535L145.119 62.5319ZM156.734 74.1954V61.5405H152.379V59.1707H163.618V61.5405H159.225V74.1954H156.734ZM163.108 74.1954L169.678 59.1707H171.839L178.415 74.1954H175.828L174.107 70.2563H167.383L165.689 74.1954H163.108ZM170.74 62.5319L168.323 68.0773H173.157L170.74 62.5319ZM184.894 74.471C183.467 74.535 182.069 74.0534 180.985 73.1244C180.51 72.7261 180.122 72.2334 179.848 71.6775C179.574 71.1216 179.418 70.5149 179.392 69.8958H181.867C181.899 70.2326 182.006 70.5581 182.181 70.848C182.355 71.138 182.593 71.3851 182.876 71.5711C183.461 71.9649 184.152 72.172 184.857 72.1648C185.502 72.1883 186.138 72.0023 186.668 71.6347C186.894 71.4812 187.077 71.2735 187.202 71.0309C187.326 70.7882 187.387 70.5182 187.38 70.2457C187.38 69.2331 186.69 68.4962 185.303 68.0455L183.46 67.4359C181.003 66.6548 179.773 65.2074 179.769 63.0939C179.744 62.5185 179.85 61.9449 180.08 61.4166C180.31 60.8884 180.658 60.4195 181.097 60.0455C182.077 59.2662 183.308 58.8687 184.56 58.9268C185.206 58.8932 185.852 58.9889 186.46 59.2083C187.069 59.4277 187.627 59.7665 188.102 60.2045C188.948 60.9936 189.469 62.0692 189.563 63.2211H187.114C187.001 62.6212 186.66 62.0879 186.164 61.7314C185.697 61.4055 185.14 61.2314 184.57 61.233C184.001 61.2142 183.442 61.3818 182.977 61.7102C182.77 61.8476 182.599 62.0323 182.478 62.249C182.357 62.4657 182.289 62.7081 182.281 62.956C182.272 63.1949 182.31 63.4333 182.394 63.6573C182.478 63.8812 182.606 64.0862 182.77 64.2602C183.211 64.6569 183.741 64.9423 184.315 65.0926L186.185 65.6863C188.664 66.4922 189.903 67.9802 189.903 70.1503C189.921 70.7381 189.806 71.3223 189.565 71.8594C189.325 72.3965 188.967 72.8724 188.517 73.2517C187.499 74.0808 186.212 74.5073 184.9 74.4498L184.894 74.471ZM193.137 74.2165V59.1707H195.618V74.1954L193.137 74.2165Z" fill="#3E414E"/>
</g>
<defs>
<clipPath id="clip0_61_267">
<rect width="271" height="93" fill="white"/>
</clipPath>
</defs>
</svg>
