<svg width="1202" height="8" viewBox="0 0 1202 8" fill="none" xmlns="http://www.w3.org/2000/svg">
<path d="M1 6.86957L3.34269 3.83492C5.60057 0.910145 10.0548 0.992367 12.2483 3.96568V3.96568C14.4469 6.94583 18.9281 6.98015 21.1267 4V4C23.3253 1.01985 27.7811 1.01985 29.9797 4V4C32.1783 6.98015 36.6341 6.98015 38.8327 4V4C41.0313 1.01985 45.4871 1.01985 47.6857 4V4C49.8843 6.98015 54.3401 6.98015 56.5387 4V4C58.7373 1.01985 63.1931 1.01985 65.3917 4V4C67.5903 6.98015 72.0461 6.98015 74.2447 4V4C76.4433 1.01985 80.8991 1.01985 83.0977 4V4C85.2963 6.98015 89.7521 6.98015 91.9507 4V4C94.1493 1.01985 98.6051 1.01985 100.804 4V4C103.002 6.98015 107.458 6.98015 109.657 4V4C111.855 1.01985 116.311 1.01985 118.51 4V4C120.708 6.98015 125.164 6.98015 127.363 4V4C129.561 1.01985 134.017 1.01985 136.216 4V4C138.414 6.98015 142.87 6.98015 145.069 4V4C147.267 1.01985 151.723 1.01986 153.922 4V4C156.12 6.98014 160.576 6.98014 162.775 4V4C164.973 1.01985 169.429 1.01986 171.628 4V4C173.826 6.98014 178.282 6.98015 180.481 4V4C182.679 1.01985 187.135 1.01985 189.334 4V4C191.532 6.98015 195.988 6.98015 198.187 4V4C200.385 1.01985 204.841 1.01986 207.04 4V4C209.238 6.98014 213.694 6.98015 215.893 4V4C218.091 1.01986 222.547 1.01986 224.746 4V4C226.944 6.98014 231.4 6.98015 233.599 4V4C235.797 1.01985 240.253 1.01986 242.452 4V4C244.65 6.98015 249.106 6.98015 251.305 4.00001V4.00001C253.503 1.01986 257.959 1.01986 260.158 4.00001V4.00001C262.356 6.98016 266.812 6.98013 269.011 3.99999V3.99999C271.209 1.01986 275.665 1.01985 277.864 3.99999V3.99999C280.062 6.98014 284.518 6.98014 286.717 3.99999V3.99999C288.915 1.01985 293.371 1.01986 295.57 3.99999V3.99999C297.768 6.98014 302.224 6.98015 304.423 4V4C306.621 1.01986 311.077 1.01986 313.276 4V4C315.474 6.98015 319.93 6.98014 322.129 4V4C324.327 1.01986 328.783 1.01985 330.982 3.99999V3.99999C333.18 6.98014 337.636 6.98014 339.835 3.99999V3.99999C342.033 1.01985 346.489 1.01986 348.688 4V4C350.886 6.98014 355.342 6.98015 357.541 4V4C359.739 1.01986 364.195 1.01986 366.394 4V4C368.592 6.98015 373.048 6.98014 375.247 4V4C377.445 1.01985 381.901 1.01986 384.1 4V4C386.298 6.98014 390.754 6.98014 392.953 3.99999V3.99999C395.151 1.01985 399.607 1.01987 401.806 4V4C404.004 6.98013 408.46 6.98015 410.659 4.00001V4.00001C412.857 1.01986 417.313 1.01986 419.512 4V4C421.71 6.98015 426.166 6.98015 428.365 4V4C430.563 1.01985 435.019 1.01985 437.218 4V4C439.416 6.98015 443.872 6.98015 446.071 4V4C448.269 1.01985 452.725 1.01986 454.924 4V4C457.122 6.98015 461.578 6.98014 463.777 4V4C465.975 1.01986 470.431 1.01985 472.63 3.99999V3.99999C474.828 6.98014 479.284 6.98014 481.483 3.99999V3.99999C483.681 1.01986 488.137 1.01985 490.336 3.99999V3.99999C492.534 6.98014 496.99 6.98014 499.189 4V4C501.387 1.01985 505.843 1.01985 508.042 3.99999V3.99999C510.24 6.98014 514.696 6.98015 516.895 4V4C519.093 1.01985 523.549 1.01986 525.748 4.00001V4.00001C527.946 6.98014 532.402 6.98015 534.601 4.00001V4.00001C536.799 1.01986 541.255 1.01986 543.454 4.00001V4.00001C545.652 6.98015 550.108 6.98014 552.307 4.00001V4.00001C554.505 1.01986 558.961 1.01986 561.16 4V4C563.358 6.98014 567.814 6.98015 570.013 4V4C572.211 1.01985 576.667 1.01986 578.866 3.99999V3.99999C581.064 6.98014 585.52 6.98014 587.719 3.99999V3.99999C589.917 1.01984 594.373 1.01988 596.572 4.00001V4.00001C598.77 6.98013 603.226 6.98015 605.425 4.00001V4.00001C607.623 1.01988 612.079 1.01987 614.278 4.00001V4.00001C616.476 6.98015 620.932 6.98013 623.131 4.00001V4.00001C625.329 1.01986 629.785 1.01987 631.984 4V4C634.182 6.98013 638.638 6.98016 640.837 4.00002V4.00002C643.035 1.01987 647.491 1.01987 649.69 4.00002V4.00002C651.888 6.98016 656.344 6.98012 658.543 4V4C660.741 1.01988 665.197 1.01985 667.396 3.99999V3.99999C669.594 6.98014 674.05 6.98013 676.249 4V4C678.447 1.01986 682.903 1.01985 685.102 4V4C687.3 6.98015 691.756 6.98014 693.955 4V4C696.153 1.01986 700.609 1.01985 702.808 4V4C705.006 6.98015 709.462 6.98014 711.661 3.99999V3.99999C713.859 1.01986 718.315 1.01985 720.514 3.99999V3.99999C722.712 6.98014 727.168 6.98014 729.367 3.99999V3.99999C731.565 1.01985 736.021 1.01986 738.22 3.99999V3.99999C740.418 6.98013 744.874 6.98015 747.073 4V4C749.271 1.01985 753.727 1.01986 755.926 4V4C758.124 6.98014 762.58 6.98015 764.779 4V4C766.977 1.01986 771.433 1.01986 773.632 4.00001V4.00001C775.83 6.98016 780.286 6.98013 782.485 3.99999V3.99999C784.683 1.01987 789.139 1.01985 791.338 3.99999V3.99999C793.536 6.98013 797.992 6.98014 800.191 4V4C802.389 1.01986 806.845 1.01986 809.044 4.00001V4.00001C811.242 6.98015 815.698 6.98014 817.897 4V4C820.095 1.01987 824.551 1.01985 826.75 4V4C828.948 6.98015 833.404 6.98014 835.603 4V4C837.801 1.01985 842.257 1.01987 844.456 4.00001V4.00001C846.654 6.98013 851.11 6.98015 853.309 4V4C855.507 1.01985 859.963 1.01988 862.162 4.00001V4.00001C864.36 6.98013 868.816 6.98015 871.015 4.00001V4.00001C873.213 1.01988 877.669 1.01987 879.868 4.00001V4.00001C882.066 6.98015 886.522 6.98013 888.721 4.00001V4.00001C890.919 1.01986 895.375 1.01987 897.574 4V4C899.772 6.98013 904.228 6.98016 906.427 4.00002V4.00002C908.625 1.01987 913.081 1.01987 915.28 4.00002V4.00002C917.478 6.98016 921.934 6.98013 924.133 4V4C926.331 1.01987 930.787 1.01985 932.986 3.99999V3.99999C935.184 6.98013 939.64 6.98014 941.839 4V4C944.037 1.01986 948.493 1.01986 950.692 4.00001V4.00001C952.89 6.98015 957.346 6.98014 959.545 4.00001V4.00001C961.743 1.01986 966.199 1.01985 968.398 4V4C970.596 6.98015 975.052 6.98014 977.251 3.99999V3.99999C979.449 1.01986 983.905 1.01985 986.104 3.99999V3.99999C988.302 6.98014 992.758 6.98014 994.957 3.99999V3.99999C997.155 1.01985 1001.61 1.01985 1003.81 3.99999V3.99999C1006.01 6.98013 1010.46 6.98014 1012.66 3.99998V3.99998C1014.86 1.01984 1019.32 1.01989 1021.52 4.00001V4.00001C1023.71 6.98011 1028.17 6.98014 1030.37 4V4C1032.57 1.01986 1037.02 1.0199 1039.22 4V4C1041.42 6.98012 1045.88 6.98015 1048.07 4.00002V4.00002C1050.27 1.01989 1054.73 1.01989 1056.93 4.00004V4.00004C1059.13 6.98017 1063.58 6.98008 1065.78 4V4C1067.98 1.01992 1072.44 1.01982 1074.63 3.99995V3.99995C1076.83 6.9801 1081.29 6.98011 1083.49 3.99996V3.99996C1085.69 1.01983 1090.14 1.01989 1092.34 3.99999V3.99999C1094.54 6.9801 1098.99 6.98016 1101.19 4.00002V4.00002C1103.39 1.01987 1107.85 1.01987 1110.05 4V4C1112.24 6.98015 1116.7 6.98014 1118.9 3.99999V3.99999C1121.1 1.01987 1125.55 1.01986 1127.75 4V4C1129.95 6.98014 1134.41 6.98012 1136.6 4V4C1138.8 1.01986 1143.26 1.01989 1145.46 4.00002V4.00002C1147.66 6.98012 1152.11 6.98017 1154.31 4.00004V4.00004C1156.51 1.01989 1160.97 1.01989 1163.16 4.00004V4.00004C1165.36 6.98017 1169.82 6.9801 1172.02 4V4C1174.22 1.0199 1178.67 1.01983 1180.87 3.99996V3.99996C1183.07 6.98011 1187.52 6.98011 1189.72 3.99996L1189.91 3.7412C1192.09 0.792036 1196.43 0.610655 1198.85 3.36824L1201 5.82609" stroke="#EBDFFF"/>
</svg>
