<svg width="314" height="63" viewBox="0 0 314 63" fill="none" xmlns="http://www.w3.org/2000/svg">
<g clip-path="url(#clip0_61_278)">
<path d="M58.3101 18.715C57.5801 19.025 57.2401 19.865 57.5501 20.595C59.0101 24.045 59.7501 27.725 59.7501 31.505C59.7501 33.825 59.4601 36.075 58.9201 38.235C58.5001 39.595 57.7501 40.855 56.7201 41.995C56.7401 41.505 56.7601 41.015 56.7601 40.515C56.7701 34.995 55.2501 29.175 52.4201 23.695C54.4901 21.915 55.8101 19.715 56.2701 17.255C56.4101 16.475 55.9001 15.725 55.1201 15.575C54.3401 15.425 53.5901 15.945 53.4501 16.725C53.1501 18.355 52.3001 19.845 50.9801 21.115C50.5701 20.435 50.1401 19.765 49.6901 19.095C47.1701 15.395 44.1701 12.195 40.8901 9.645C45.2201 9.925 49.2201 10.985 52.4501 12.785C52.9601 13.075 53.6301 13.065 54.1001 12.665C54.7101 12.155 54.7901 11.245 54.2801 10.635C49.6501 4.165 41.6401 0.595001 31.7201 0.595001C14.6801 0.595001 0.810059 14.465 0.810059 31.505C0.810059 34.445 1.23006 37.285 2.00006 39.975C2.05006 40.155 2.09006 40.335 2.14006 40.515C2.15006 40.555 2.17006 40.585 2.18006 40.615C6.08006 53.215 17.8401 62.405 31.7101 62.405C38.1301 62.405 44.0901 60.435 49.0401 57.075C49.0901 57.045 49.1401 57.025 49.1801 56.995C49.4801 56.795 49.7601 56.585 50.0401 56.365C55.7201 52.165 59.9301 46.065 61.6901 39.005C61.7901 38.685 61.8801 38.345 61.9501 38.015C61.9701 37.935 61.9701 37.855 61.9801 37.775C62.4001 35.745 62.6201 33.645 62.6201 31.495C62.6201 27.325 61.8001 23.275 60.1901 19.465C59.8901 18.745 59.0401 18.405 58.3101 18.715ZM47.3201 20.725C47.7901 21.425 48.2401 22.125 48.6701 22.845C46.3701 24.175 43.4701 24.965 40.3301 25.195C40.0601 20.235 39.4801 15.455 38.5401 11.485C41.8101 13.915 44.8101 17.055 47.3201 20.725ZM43.0501 5.505C44.4901 6.085 45.9201 6.825 47.2801 7.755C45.1101 7.215 42.8001 6.885 40.4001 6.765C41.3801 6.125 42.2901 5.685 43.0501 5.505ZM39.2501 4.315C38.4501 4.745 37.6201 5.285 36.7801 5.925C36.4001 5.075 36.0001 4.325 35.5701 3.685C36.7201 3.815 37.9601 4.015 39.2501 4.315ZM25.5801 25.305C27.6401 26.235 29.8901 26.965 32.2501 27.475C34.0401 27.855 35.8201 28.065 37.5801 28.125C37.6101 29.205 37.6301 30.315 37.6301 31.455C37.6301 38.225 37.0901 43.845 36.3101 48.235C33.7401 48.125 31.0901 47.785 28.4301 47.225C24.8701 46.455 21.5101 45.335 18.4601 43.895C19.4601 39.395 21.3201 33.935 24.2801 27.885C24.6901 27.005 25.1301 26.145 25.5801 25.305ZM20.5601 18.665C19.3701 17.545 18.4701 16.395 17.8601 15.225C20.5501 13.605 23.5301 12.285 26.7101 11.325C28.6001 10.755 30.5101 10.335 32.4201 10.045C29.6601 13.125 26.9201 17.045 24.4001 21.475C22.9601 20.645 21.6701 19.705 20.5601 18.665ZM37.4601 25.235C35.9401 25.175 34.3801 24.985 32.8501 24.655C30.7701 24.215 28.7901 23.575 26.9701 22.775C29.6501 18.085 32.5901 14.005 35.4801 10.965C36.3801 14.525 37.1401 19.305 37.4601 25.235ZM31.6801 3.475C32.1701 3.485 32.7701 4.065 33.4001 5.205C33.0801 5.065 32.7601 4.935 32.4401 4.815C31.1401 4.315 29.8501 3.935 28.5801 3.655C29.6001 3.535 30.6301 3.475 31.6801 3.475ZM17.0701 10.545C17.3901 9.055 18.2901 7.725 19.6701 6.615C23.0201 5.615 26.9301 5.855 31.0301 7.355C29.3101 7.655 27.5801 8.055 25.8701 8.565C22.7001 9.515 19.7101 10.815 16.9701 12.405C16.9201 11.775 16.9501 11.155 17.0701 10.545ZM14.3801 9.505C14.3401 9.655 14.3001 9.795 14.2701 9.955C13.9801 11.315 14.0101 12.695 14.3501 14.075C11.2601 16.205 8.57006 18.735 6.42006 21.565C5.77006 22.425 5.19006 23.305 4.66006 24.195C6.25006 18.305 9.72006 13.185 14.3801 9.505ZM14.8401 53.865C10.0401 50.235 6.46006 45.105 4.76006 39.175C4.52006 38.235 4.36006 37.285 4.30006 36.325C5.26006 37.685 6.43006 39.025 7.82006 40.315C9.92006 42.255 12.4201 43.995 15.2001 45.485C14.6401 48.665 14.4801 51.545 14.8401 53.865ZM9.78006 38.195C7.34006 35.935 5.66006 33.555 4.80006 31.175C5.48006 28.515 6.79006 25.845 8.72006 23.295C10.5501 20.865 12.8301 18.685 15.4501 16.805C16.2001 18.165 17.2601 19.495 18.6001 20.755C19.8801 21.955 21.3601 23.035 23.0201 23.985C22.5601 24.845 22.1201 25.725 21.6901 26.615C19.1401 31.845 17.0601 37.445 15.8301 42.535C13.5601 41.265 11.5101 39.805 9.78006 38.195ZM31.7401 59.515C31.6701 59.515 31.6001 59.525 31.5401 59.535C27.2601 59.505 23.2101 58.525 19.5801 56.775C19.5001 56.705 19.4001 56.645 19.3001 56.595C17.7001 55.815 17.0601 52.255 17.8901 46.815C20.9601 48.195 24.3001 49.285 27.8101 50.035C30.4701 50.605 33.1201 50.955 35.7201 51.085C34.4501 56.615 32.8201 59.515 31.7401 59.515ZM48.3001 54.085C44.7201 56.725 40.4901 58.535 35.9001 59.225C37.0501 57.235 37.9801 54.435 38.6801 51.145C42.7401 51.095 46.5901 50.505 50.0001 49.355C50.8601 49.065 51.6701 48.745 52.4501 48.395C51.5101 50.715 50.1201 52.645 48.3001 54.085ZM53.5401 44.585C52.2501 45.375 50.7701 46.065 49.0901 46.625C46.1201 47.625 42.7801 48.165 39.2301 48.255C40.0801 43.145 40.4901 37.215 40.4901 31.445C40.4901 30.325 40.4801 29.195 40.4401 28.075C44.0201 27.835 47.3301 26.905 50.0401 25.345C52.5501 30.315 53.9001 35.555 53.8901 40.495C53.8901 41.935 53.7701 43.305 53.5401 44.585Z" fill="#3E414E"/>
<path d="M72.6201 21.86H88.2301V25.06H82.5001V41.12H78.3601V25.06H72.6201V21.86ZM94.5601 41.12V32.66H101.89V41.12H106.03V21.86H101.84V29.46H94.5601V21.86H90.4201V41.12H94.5601ZM109.39 41.12H122.6V37.92H113.53V32.77H121.75V29.57H113.53V25.06H122.31V21.86H109.39V41.12ZM139.12 36.35H139.07L136.11 21.86H131.84L136.54 41.12H141.23L144.97 26.45H145.02L148.49 41.12H153.07L157.98 21.86H154.03L150.93 36.35H150.88L147.52 21.86H142.86L139.12 36.35ZM159.38 31.5C159.38 37.18 162.26 41.53 168.64 41.53C175.01 41.53 177.9 37.19 177.9 31.5C177.9 25.82 175.02 21.47 168.64 21.47C162.26 21.46 159.38 25.81 159.38 31.5ZM163.78 31.5C163.78 28.19 164.56 24.45 168.64 24.45C172.72 24.45 173.5 28.19 173.5 31.5C173.5 34.8 172.72 38.54 168.64 38.54C164.56 38.54 163.78 34.8 163.78 31.5ZM184.76 33.36H189.14C190.5 33.41 190.76 34.88 190.87 35.95C191.05 37.69 191.24 39.42 191.59 41.12H196.15C195.38 40.05 195.22 37.79 195.03 36.56C194.68 33.89 194.68 31.94 191.51 31.6V31.55C193.89 31.05 195.51 29.39 195.51 26.88C195.51 22.96 192.12 21.89 188.81 21.86H180.62V41.12H184.76V33.36ZM184.76 25.06H188.22C190.04 25.09 191.1 25.81 191.1 27.51C191.1 29.22 190.03 30.12 188.22 30.15H184.76V25.06ZM211.15 41.12V37.92H202.8V21.86H198.67V41.12H211.15ZM213.39 41.12H219.95C225.95 41.17 229.69 38.19 229.69 31.49C229.69 24.79 225.95 21.8 219.95 21.86H213.39V41.12ZM217.53 25.06H219.67C224.58 25.01 225.3 28.42 225.3 31.49C225.3 34.55 224.58 37.97 219.67 37.92H217.53V25.06ZM247.45 41.12C250.41 41.33 255.21 39.95 255.21 36.13C255.21 33.31 253.4 31.63 250.97 31.12V31.07C252.89 30.43 254.36 28.96 254.36 26.86C254.36 23.1 250.84 21.66 247.4 21.87H240.17V41.13H247.45V41.12ZM244.29 37.92V32.8H247.52C249.47 32.8 250.8 33.15 250.8 35.36C250.8 37.58 249.47 37.92 247.52 37.92H244.29ZM244.29 29.6V25.06H247.52C249.25 25.06 250.21 25.78 250.21 27.33C250.21 28.88 249.25 29.6 247.52 29.6H244.29ZM260.44 41.12L261.88 37.04H269.51L270.9 41.12H275.06L268.37 21.86H263.46L256.49 41.12H260.44ZM262.95 33.84L265.77 25.62H265.83L268.47 33.84H262.95ZM294.57 41.12V21.86H290.7V36.96L290.65 37.02L283.31 21.87H277.18V41.13H281.05V25.17L281.1 25.11L288.7 41.12H294.57ZM302.1 21.86H297.97V41.12H302.1V31.3H302.15L308.85 41.12H314L306.32 30.48L313.39 21.86H308.56L302.16 30.19H302.11V21.86H302.1Z" fill="#3E414E"/>
</g>
<defs>
<clipPath id="clip0_61_278">
<rect width="313.19" height="61.81" fill="white" transform="translate(0.810059 0.595001)"/>
</clipPath>
</defs>
</svg>
